<svg id="Capa_1" enable-background="new 0 0 512 512" height="512" viewBox="0 0 512 512" width="512" xmlns="http://www.w3.org/2000/svg"><g><path d="m102.506 15h64v64.16h-64z" fill="#3b4a51"/><g><path d="m173.01 192h165.98v128h-165.98z" fill="#495f66"/></g><path d="m256 192h82.99v128h-82.99z" fill="#3b4a51"/><path d="m241 241h30v30h-30z" fill="#54c466"/><path d="m256 241h15v30h-15z" fill="#00a76a"/><path d="m192.133 128-115.254 26.824v-90.985h115.254z" fill="#54c466"/><path d="m25.627 384 16.995-256h149.511v256l-83.253 19.077z" fill="#95e02a"/><path d="m44.88 448 64-18.208 64 18.208c0 35.346-28.654 64-64 64-35.347 0-64-28.654-64-64z" fill="#d9e5ff"/><path d="m345.494 15h64v64.16h-64z" fill="#2b394a"/><path d="m83.163 0h102.685v30h-102.685z" fill="#495f66"/><path d="m0 384h217.759v64h-217.759z" fill="#495f66"/><path d="m319.867 128 115.254 26.824v-90.985h-115.254z" fill="#00a76a"/><path d="m486.373 384-16.995-256h-149.511v256l83.253 19.077z" fill="#54c466"/><path d="m467.12 448-64-18.208-64 18.208c0 35.346 28.654 64 64 64 35.347 0 64-28.654 64-64z" fill="#bed5ff"/><g fill="#3b4a51"><path d="m326.152 0h102.685v30h-102.685z"/><path d="m294.241 384h217.759v64h-217.759z"/></g></g></svg>