<svg id="Capa_1" enable-background="new 0 0 512 512" height="512" viewBox="0 0 512 512" width="512" xmlns="http://www.w3.org/2000/svg"><g><g><path d="m121.191 82.243c-11.467 9.403-16.055 22.796-15.014 34.344 1.189 13.184 11.521 26.175 28.155 28.709 11.639 1.774 24.608-2.217 30.762-8.74-8.917-23.827-21.639-57.136-21.639-57.136-8.297-.903-15.82.203-22.264 2.823z" fill="#c38778"/><path d="m137.818 141.109c-16.676-2.242-24.947-14.932-26.136-28.116-1.041-11.547 2.129-22.21 9.509-30.75-14.488 5.889-23.509 19.449-23.509 35.2 0 21.115 15.66 36.677 35.161 39.503 13.009 1.886 26.025-1.589 37.234-6.97-1.388-3.782-3.101-8.391-4.983-13.42-9.421 3.997-19.359 5.617-27.276 4.553z" fill="#b46e5a"/><path d="m153.455 79.419c0 22.906 18.584 48.767 23.368 57.12l116.714-20.621c.084-28.047.187-66.441.189-87.106-16.98-15.901-43.164-21.312-65.846-21.312-15.088 0-30.545 2.728-44.044 8.781-9.569 7.271-30.381 25.047-30.381 63.138z" fill="#c38778"/><path d="m194.472 115.918c-4.007 3.884-12.549 10.988-17.406 13.97-4.783-8.353-18.611-27.563-18.611-50.469 0-38.091 15.812-55.866 25.381-63.138-23.048 10.336-40.381 30.374-40.381 63.138 0 33.201 18.662 48.86 26.623 70.557h123.35s.05-14.52.109-34.058z" fill="#b46e5a"/><path d="m290.941 194.207c6.621-9.146 11.702-24.646 16.674-46.669 7.652-.319 15.514-4.863 15.514-12.267 0-8.004-10.965-12.019-14.083-23.316-1.363-4.939-1.143-10.166.319-17.27 6.486-31.505-1.29-52.435-15.64-65.874-.002 35.062-47.337 34.737-47.337 34.737s-4.2 21.045-25.491 42.891c-2.968-4.49-7.907-7.43-13.499-7.43-9.076 0-16.433 7.74-16.433 17.287 0 6.055 1.685 11.555 4.694 16.024 4.742 7.043 25.283 61.887 25.283 61.887z" fill="#ffcdbe"/><path d="m314.208 339.08-2.78.918c8.408-8.848 15.494-16.995 19.91-22.579 1.147-3.431 1.864-7.257 1.864-11.481 0-16.309-10.826-27.748-30.633-37.709-11.195-5.63-83.544-42.014-83.544-42.014l-60.033 79.365 41.073 78.923-20.839 112.842 233.467-7.846-6.353-58.639-10.842-37.416c-15.762-31.996-46.155-54.364-81.29-54.364z" fill="#d3effd"/><path d="m185.277 489.5 19.803-68.026c22.173 13.344 69.958 32.063 127.961 32.063 36.21 0 66.164-14.676 73.299-22.676l-56.604-21.121-89.867-52.717 54.339-17.943s12.349-7.363 17.13-21.661c-24.108 7.476-39.572 4.464-58.77-5.19-4.581-2.304-28.471-14.318-49.565-24.926l-64.012 18.278c9.42 40.696 30.877 80.093 30.877 80.093l-34.591 118.826h259.041s-.61-5.628-1.625-15z" fill="#b2e5fb"/><path d="m199.869 381.673c0 6.246 2.903 12.144 7.883 15.913 13.702 10.37 71.308 30.951 125.289 30.951 32.587 0 60.784-5.348 70.939-11.36-1.959-8.322-4.817-16.29-8.482-23.732l-38.836-9.926c-18.138-4.636-37.111 3.618-46.086 20.048l-65.707-38.545v-110.66c0-6.716-2.393-12.873-6.374-17.665-5.074-6.109-12.728-19.999-21.29-19.999l-47.127.316-7.036 82.138h36.827z" fill="#ffcdbe"/><path d="m403.98 417.177c-11.748 2.193-38.352 6.36-70.939 6.36-53.98 0-106.587-20.581-120.289-30.951-4.98-3.769-7.883-9.667-7.883-15.913v-86.312c0-4.142-3.358-7.5-7.5-7.5s-7.5 3.358-7.5 7.5h-9.863c-5.064 0-9.331-3.818-9.841-8.856-.292-2.882-.519-6.24-.519-9.717 0-11.162 1.67-21.933 3.418-30.147 1.856-8.725 9.585-14.943 18.506-14.943h25.635c8.562 0 16.216 3.89 21.29 9.999l-.001.001h1.375v-40.195c8.85 3.477 21.893 7.638 33.657 7.638 6.983 0 12.605-3.29 17.415-9.934-23.39-2.276-72.351-14.145-72.351-36.742l-.159-13.624c-9.989 0-18.03-4.476-22.773-11.52-5.808 5.629-14.869 12.513-25.581 17.655 2.157 5.88 3.536 12.198 3.536 19.435 0 36.851-18.968 62.287-18.968 102.377 0 10.802 1.698 22.349 4.346 33.793h30.877v80.093c0 6.246 2.903 12.144 7.883 15.913 17.225 13.037 69.729 36.951 135.289 36.951 50.408 0 73.299-7.676 73.299-7.676-.503-4.652-1.307-9.217-2.359-13.685z" fill="#ebae9d"/></g><g><path d="m414.318 512h-146.41c-4.142 0-7.5-3.358-7.5-7.5s3.358-7.5 7.5-7.5h138.053l-6.149-56.758c-11.03 2.35-32.976 5.795-66.771 5.795-65.289 0-119.384-23.006-139.815-38.471-.534-.404-1.051-.827-1.55-1.267l-26.405 90.701h72.637c4.142 0 7.5 3.358 7.5 7.5s-3.358 7.5-7.5 7.5h-82.632c-2.36 0-4.583-1.111-5.999-2.999s-1.862-4.332-1.202-6.598l33.744-115.912c-2.907-5.605-9.689-19.191-16.539-36.553-12.033-30.5-18.135-56.794-18.135-78.151 0-21.558 5.131-38.837 10.094-55.548 4.563-15.367 8.874-29.882 8.874-46.83 0-3.273-.324-6.337-.908-9.262-10.616 3.908-22.103 5.863-33.437 4.22-24.096-3.493-41.585-23.228-41.585-46.926 0-12.887 5.036-24.692 14.179-33.24 8.405-7.858 19.585-12.229 31.911-12.571 1.878-22.603 12.051-41.077 29.704-53.748 16.065-11.53 38.05-17.882 61.903-17.882 9.606 0 18.945.904 27.758 2.687 4.06.821 6.686 4.778 5.864 8.838s-4.778 6.686-8.838 5.864c-7.836-1.585-16.174-2.389-24.784-2.389-20.741 0-39.62 5.352-53.157 15.069-15.771 11.321-23.768 27.925-23.768 49.35 0 20.219 7.425 32.947 15.287 46.423 2.579 4.421 5.189 8.896 7.488 13.629 4.852-2.867 9.136-5.974 12.576-8.837-1.835-4.334-2.841-9.171-2.841-14.338 0-13.668 10.736-24.788 23.933-24.788 4.765 0 9.342 1.467 13.204 4.112 14.968-17.667 18.402-33.401 18.438-33.574.727-3.477 3.8-5.999 7.348-5.999h.097c2.076 0 36.714-.371 39.554-24.011-2.241-1.842-4.691-3.548-7.347-5.115-3.567-2.104-4.753-6.703-2.648-10.271 2.104-3.568 6.704-4.753 10.271-2.648 19.248 11.355 40.146 34.833 30.396 82.193-1.284 6.241-1.41 10.228-.435 13.762 1.073 3.889 3.699 6.754 6.479 9.787 3.691 4.027 7.875 8.593 7.875 15.525 0 7.831-5.866 16.329-16.859 18.965-6.988 29.757-16.392 57.404-40.245 57.404-8.813 0-18.125-2.061-26.157-4.548v24.982l32.124 16.155c3.701 1.861 5.192 6.369 3.331 10.07-1.86 3.701-6.369 5.192-10.07 3.331l-20.515-10.317c.086 1.005.131 2.021.131 3.049v50.728c0 4.142-3.358 7.5-7.5 7.5s-7.5-3.358-7.5-7.5v-50.728c0-11.119-9.045-20.164-20.164-20.164h-21.666c-4.142 0-7.5-3.358-7.5-7.5s3.358-7.5 7.5-7.5h21.664c5.427 0 10.57 1.235 15.164 3.44v-21.105c-3.767-1.624-6.151-2.833-6.46-2.99-3.688-1.887-5.148-6.405-3.262-10.093 1.887-3.688 6.404-5.147 10.091-3.262.378.191 22.74 11.454 40.788 11.454 8.718 0 14.879-10.236 19.754-24.611-7.128-1.764-14.691-5.543-19.428-12.168-2.409-3.37-1.63-8.054 1.739-10.463 3.37-2.408 8.054-1.63 10.463 1.739 2.415 3.378 6.981 5.509 11.433 6.493.98-3.818 1.912-7.757 2.812-11.742.747-3.306 3.617-5.7 7.003-5.842 3.931-.164 8.327-2.24 8.327-4.773 0-1.099-2.09-3.378-3.934-5.391-3.495-3.814-7.845-8.56-9.879-15.931-1.35-4.89-1.545-9.975-.573-16.457-4.333-2.947-12.112-5.329-23.263-4.599-4.14.271-7.704-2.86-7.975-6.993s2.86-7.704 6.993-7.975c10.201-.669 19.42.724 26.759 3.911 1.383-14.226-.693-26.297-6.203-36.143-8.516 17.541-30.073 23.952-45.462 25.142-2.8 8.313-9.806 24.364-25.734 40.743-.504.535-1.089.999-1.74 1.371-3.246 1.854-7.366 1.037-9.654-1.92-.145-.187-.279-.378-.403-.574-1.688-2.475-4.356-3.947-7.165-3.947-4.926 0-8.933 4.391-8.933 9.788 0 11.801 8.21 20.043 19.966 20.043 4.142 0 7.5 3.358 7.5 7.5s-3.358 7.5-7.5 7.5c-9.126 0-17.225-3.157-23.324-8.499-4.662 3.829-10.074 7.585-15.995 10.884 1.253 4.819 2.001 10 2.001 15.686 0 19.127-4.827 35.381-9.495 51.1-4.657 15.683-9.473 31.9-9.473 51.277 0 8.392 1.096 17.307 2.897 26.292h17.326v-7.719c0-4.142 3.358-7.5 7.5-7.5s7.5 3.358 7.5 7.5v95.312c0 3.893 1.835 7.606 4.91 9.933 18.098 13.698 69.603 35.431 130.762 35.431 34.238 0 55.341-3.582 64.955-5.745-1.509-8.865-4.13-17.426-7.751-25.448l-35.439-9.057c-14.831-3.792-30.31 2.944-37.647 16.376-.973 1.781-2.625 3.091-4.58 3.633-1.956.542-4.046.268-5.797-.759l-65.708-38.545c-2.295-1.347-3.705-3.808-3.705-6.469v-29.934c0-4.142 3.358-7.5 7.5-7.5s7.5 3.358 7.5 7.5v25.638l55.862 32.769c11.671-15.069 31.347-22.083 50.289-17.243l21.092 5.391c-2.704-3.667-5.659-7.137-8.849-10.373-15.695-15.922-35.78-24.691-56.555-24.691-3.375 0-6.335-2.255-7.231-5.51s.493-6.707 3.393-8.434c.593-.362 15.332-9.558 15.332-26.698 0-12.393-7.926-21.667-26.503-31.008-3.7-1.861-5.192-6.37-3.331-10.07s6.369-5.191 10.07-3.331c14.923 7.505 34.764 20.273 34.764 44.41 0 11.673-4.45 20.775-9.408 27.294 18.539 3.614 35.92 13.072 50.152 27.509 17.998 18.258 29.486 42.874 32.351 69.313l7.978 73.639c.229 2.117-.453 4.232-1.875 5.817s-3.449 2.488-5.578 2.488zm-245.678-198.919c3.88 14.046 8.968 27.642 13.728 38.991v-38.991zm-32.404-226.438c-8.476.335-16.037 3.288-21.63 8.517-6.077 5.681-9.423 13.595-9.423 22.283 0 16.437 11.817 29.628 28.737 32.081 8.91 1.289 17.978-.408 26.309-3.531-2.024-4.16-4.42-8.269-6.943-12.593-7.29-12.493-15.45-26.482-17.05-46.757zm144.069 41.063c-6.799 0-13.626-2.846-18.335-7.947-2.81-3.043-2.62-7.789.423-10.598s7.789-2.62 10.598.423c2.404 2.605 6.51 3.769 9.762 2.769 3.959-1.219 8.156 1.002 9.375 4.961 1.219 3.958-1.002 8.156-4.961 9.375-2.226.685-4.542 1.017-6.862 1.017z"/></g></g></svg>