<svg id="Capa_1" enable-background="new 0 0 512 512" height="512" viewBox="0 0 512 512" width="512" xmlns="http://www.w3.org/2000/svg"><g><path d="m10.984 501.017c-14.645-14.645-14.645-38.388 0-53.033l113.548-113.548 53.033 53.033-113.549 113.548c-14.644 14.644-38.388 14.644-53.032 0z" fill="#bedcf0"/><path d="m177.564 387.469-26.516-26.516-140.064 140.063c14.645 14.645 38.388 14.645 53.033 0z" fill="#a5bfd7"/><path d="m497 290h-260c-8.284 0-15-6.716-15-15 0-79.953 65.047-145 145-145s145 65.047 145 145c0 8.284-6.716 15-15 15z" fill="#49acff"/><path d="m224.71 422.29c-74.439 0-135-60.561-135-135s60.561-135 135-135 135 60.561 135 135-60.561 135-135 135z" fill="#dcf0ff"/><path d="m224.71 422.29c74.439 0 135-60.561 135-135 0-37.22-15.14-70.97-39.585-95.415l-190.83 190.83c24.445 24.445 58.195 39.585 95.415 39.585z" fill="#bedcf0"/><circle cx="224.71" cy="287.29" fill="#ffe350" r="105"/><path d="m224.71 392.29c57.897 0 105-47.103 105-105 0-28.948-11.776-55.198-30.789-74.211l-148.422 148.422c19.012 19.013 45.262 30.789 74.211 30.789z" fill="#ffc81e"/><path d="m329.71 287.29c0-48.254-32.722-89.003-77.14-101.241-19.148 24.577-30.57 55.454-30.57 88.951 0 8.284 6.716 15 15 15h92.675c.023-.901.035-1.804.035-2.71z" fill="#ffc81e"/><path d="m237 290h92.675c.023-.901.035-1.804.035-2.71 0-28.949-11.786-55.188-30.801-74.199l-72.516 72.516c2.715 2.714 6.465 4.393 10.607 4.393z" fill="#faaa0f"/><path d="m367 130v160h130c8.284 0 15-6.716 15-15 0-79.953-65.047-145-145-145z" fill="#1790e7"/><path d="m367 160c-44.112 0-80-35.888-80-80s35.888-80 80-80 80 35.888 80 80-35.888 80-80 80z" fill="#ffd5b6"/><path d="m367 0v160c44.112 0 80-35.888 80-80s-35.888-80-80-80z" fill="#ffc896"/></g></svg>